# Blender v3.2.1 OBJ File: 'abc_dataset.blend'
# www.blender.org
# mtllib a.mtl
v 0.264252 0.104025 -0.038627
v 0.186929 0.303444 0.015550
v -0.050540 0.298499 0.181936
v -0.118155 0.096062 0.229311
v -0.200040 0.094357 0.286685
v 0.030305 0.785253 0.125291
v 0.086806 0.786430 0.085702
v 0.346138 0.105730 -0.096002
v 0.152946 0.390749 0.039361
v 0.059422 0.635838 0.104889
v -0.020652 0.387134 0.160994
v 0.126533 0.104025 -0.235182
v 0.049210 0.303444 -0.181004
v -0.188258 0.298499 -0.014619
v -0.255873 0.096062 0.032757
v -0.337759 0.094357 0.090131
v -0.107413 0.785253 -0.071264
v -0.050912 0.786430 -0.110852
v 0.208419 0.105730 -0.292556
v 0.015227 0.390749 -0.157194
v -0.078296 0.635838 -0.091665
v -0.158371 0.387134 -0.035560
v 0.126533 0.104025 -0.235182
v 0.264252 0.104025 -0.038627
v 0.049210 0.303444 -0.181004
v 0.186929 0.303444 0.015550
v -0.188258 0.298499 -0.014619
v -0.050540 0.298499 0.181936
v -0.255873 0.096062 0.032757
v -0.118155 0.096062 0.229311
v -0.337759 0.094357 0.090131
v -0.200040 0.094357 0.286685
v -0.107413 0.785253 -0.071264
v 0.030305 0.785253 0.125291
v -0.050912 0.786430 -0.110852
v 0.086806 0.786430 0.085702
v 0.208419 0.105730 -0.292556
v 0.346138 0.105730 -0.096002
v 0.015227 0.390749 -0.157194
v 0.152946 0.390749 0.039361
v -0.078296 0.635838 -0.091665
v 0.059422 0.635838 0.104889
v -0.158371 0.387134 -0.035560
v -0.020652 0.387134 0.160994
vt 0.400000 0.000000
vt 0.600000 0.000000
vt 0.500000 0.000000
vt 0.900000 0.000000
vt 0.700000 0.000000
vt 1.000000 0.000000
vt 0.800000 0.000000
vt 0.200000 0.000000
vt 0.100000 0.000000
vt 0.300000 0.000000
vt 0.000000 0.000000
vt 0.400000 0.000000
vt 0.500000 0.000000
vt 0.600000 0.000000
vt 0.900000 0.000000
vt 0.700000 0.000000
vt 1.000000 0.000000
vt 0.800000 0.000000
vt 0.200000 0.000000
vt 0.100000 0.000000
vt 0.300000 0.000000
vt 0.000000 0.000000
vt 0.000000 1.000000
vt 0.125000 1.000000
vt 0.125000 0.000000
vt 0.000000 0.000000
vt 0.250000 1.000000
vt 0.250000 0.000000
vt 0.375000 1.000000
vt 0.375000 0.000000
vt 0.500000 1.000000
vt 0.500000 0.000000
vt 0.625000 1.000000
vt 0.625000 0.000000
vt 0.750000 1.000000
vt 0.750000 0.000000
vt 0.875000 1.000000
vt 0.875000 0.000000
vt 1.000000 1.000000
vt 1.000000 0.000000
vt 0.000000 1.000000
vt 0.333333 1.000000
vt 0.333333 0.000000
vt 0.000000 0.000000
vt 0.666667 1.000000
vt 0.666667 0.000000
vt 1.000000 1.000000
vt 1.000000 0.000000
vn 0.5738 -0.0000 0.8190
vn -0.5738 0.0000 -0.8190
vn -0.4321 -0.8495 0.3028
vn 0.4626 -0.8252 -0.3242
vn -0.6756 -0.5652 0.4734
vn -0.4628 0.8250 0.3243
vn 0.4345 0.8477 -0.3044
vn 0.6942 -0.5305 -0.4864
vn -0.6944 0.5302 0.4865
vn 0.0252 -0.9995 -0.0176
vn 0.6728 0.5701 -0.4714
# usemtl LetterMaterial
# s off
f 5/1/1 7/2/1 6/3/1
f 5/1/1 10/4/1 7/2/1
f 10/4/1 8/5/1 7/2/1
f 5/1/1 11/6/1 10/4/1
f 9/7/1 8/5/1 10/4/1
f 5/1/1 3/8/1 11/6/1
f 3/8/1 9/7/1 11/6/1
f 3/8/1 2/9/1 9/7/1
f 2/9/1 8/5/1 9/7/1
f 5/1/1 4/10/1 3/8/1
f 1/11/1 8/5/1 2/9/1
f 16/12/2 17/13/2 18/14/2
f 16/12/2 18/14/2 21/15/2
f 21/15/2 18/14/2 19/16/2
f 16/12/2 21/15/2 22/17/2
f 20/18/2 21/15/2 19/16/2
f 16/12/2 22/17/2 14/19/2
f 14/19/2 22/17/2 20/18/2
f 14/19/2 20/18/2 13/20/2
f 13/20/2 20/18/2 19/16/2
f 16/12/2 14/19/2 15/21/2
f 12/22/2 13/20/2 19/16/2
# s 1
# f 24/23/3 26/24/3 25/25/3 23/26/3
# f 26/24/3 28/27/4 27/28/4 25/25/3
# f 28/27/4 30/29/4 29/30/4 27/28/4
# f 30/29/4 32/31/5 31/32/5 29/30/4
# f 32/31/5 34/33/6 33/34/6 31/32/5
# f 34/33/6 36/35/7 35/36/7 33/34/6
# f 36/35/7 38/37/8 37/38/8 35/36/7
# f 38/37/8 24/39/3 23/40/3 37/38/8
# f 40/41/9 42/42/10 41/43/10 39/44/9
# f 42/42/10 44/45/11 43/46/11 41/43/10
# f 44/45/11 40/47/9 39/48/9 43/46/11
